<svg width="160" height="32" viewBox="0 0 160 32" fill="none" xmlns="http://www.w3.org/2000/svg">
<g clip-path="url(#clip0_17_609)">
<path d="M9.77859 13.4467L15.993 7.23248L22.2108 13.45L25.8267 9.83396L15.993 0L6.1626 9.83068L9.77859 13.4467Z" fill="#828282"/>
<path d="M7.2253 15.9994L3.60938 12.3835L-0.0067314 15.9996L3.6092 19.6155L7.2253 15.9994Z" fill="#828282"/>
<path d="M9.77901 18.5533L15.9935 24.7675L22.2109 18.5503L25.8289 22.1643L25.8272 22.1663L15.9935 32L6.16277 22.1696L6.15771 22.1645L9.77901 18.5533Z" fill="#828282"/>
<path d="M28.3775 19.6172L31.9937 16.0011L28.3777 12.3852L24.7616 16.0013L28.3775 19.6172Z" fill="#828282"/>
<path d="M19.6612 15.9981H19.6627L15.9934 12.3288L13.2817 15.0405H13.2814L12.97 15.3521L12.3273 15.9948L12.3223 15.9999L12.3273 16.0052L15.9934 19.6712L19.6627 16.0019L19.6644 15.9999L19.6612 15.9981Z" fill="#828282"/>
<path d="M37.6309 7.75391H45.4955C47.4474 7.75391 48.9234 8.25484 49.9238 9.25671C50.6979 10.0326 51.0849 10.9943 51.0849 12.1415V12.19C51.0849 12.6748 51.025 13.1032 50.9044 13.4747C50.7841 13.8468 50.6234 14.1817 50.4224 14.4807C50.222 14.7799 49.989 15.0425 49.7241 15.2685C49.459 15.4949 49.1741 15.689 48.8691 15.8503C49.8502 16.2223 50.6226 16.727 51.1857 17.3655C51.7486 18.0041 52.0304 18.889 52.0304 20.02V20.0683C52.0304 20.8442 51.8813 21.5228 51.5828 22.1049C51.2843 22.6864 50.8566 23.1715 50.2998 23.5594C49.7431 23.9474 49.0735 24.238 48.291 24.4321C47.5086 24.626 46.6414 24.7228 45.6898 24.7228H37.6309V7.75391ZM44.7092 14.6141C45.5336 14.6141 46.1882 14.4731 46.6727 14.19C47.1575 13.9072 47.3999 13.4505 47.3999 12.8204V12.7719C47.3999 12.2065 47.1896 11.7743 46.7695 11.475C46.3492 11.176 45.7431 11.0264 44.9516 11.0264H41.2668V14.6141H44.7092ZM45.7032 21.4505C46.5274 21.4505 47.1734 21.3014 47.6425 21.0022C48.1111 20.7032 48.3456 20.2384 48.3456 19.608V19.5598C48.3456 18.9941 48.1273 18.5458 47.691 18.2142C47.2545 17.8833 46.5517 17.7175 45.5819 17.7175H41.2668V21.4508L45.7032 21.4505Z" fill="#828282"/>
<path d="M56.7144 7.75391H60.4479V24.7233H56.7144V7.75391Z" fill="#828282"/>
<path d="M66.1021 7.75391H69.5439L77.4954 18.2023V7.75391H81.1802V24.7233H78.0047L69.7865 13.9357V24.7233H66.1021V7.75391Z" fill="#828282"/>
<path d="M92.4831 7.63284H95.9252L103.198 24.7233H99.2951L97.7435 20.9175H90.5679L89.0165 24.7233H85.21L92.4831 7.63284ZM96.4103 17.6202L94.1555 12.1175L91.9016 17.6202H96.4103Z" fill="#828282"/>
<path d="M107.228 7.75391H110.671L118.622 18.2023V7.75391H122.306V24.7233H119.131L110.913 13.9357V24.7233H107.228V7.75391Z" fill="#828282"/>
<path d="M135.742 25.0139C134.497 25.0139 133.342 24.7875 132.275 24.3353C131.208 23.8832 130.287 23.2647 129.512 22.4807C128.736 21.6969 128.129 20.7717 127.694 19.7051C127.257 18.6383 127.039 17.4989 127.039 16.2867V16.2385C127.039 15.0263 127.257 13.8912 127.694 12.8325C128.13 11.774 128.736 10.8447 129.512 10.0447C130.287 9.24482 131.217 8.61423 132.299 8.15373C133.382 7.69323 134.578 7.46298 135.887 7.46298C136.679 7.46298 137.402 7.52794 138.056 7.65684C138.711 7.78649 139.305 7.96392 139.838 8.19012C140.372 8.41658 140.864 8.69131 141.318 9.01432C141.769 9.33783 142.19 9.69318 142.578 10.0811L140.202 12.8204C139.539 12.2226 138.865 11.7535 138.178 11.4144C137.491 11.0752 136.719 10.9053 135.863 10.9053C135.152 10.9053 134.493 11.0428 133.887 11.3176C133.281 11.5923 132.76 11.9719 132.323 12.4567C131.887 12.9414 131.548 13.5033 131.305 14.1415C131.063 14.7801 130.942 15.4628 130.942 16.1899V16.2382C130.942 16.9653 131.063 17.6526 131.305 18.2986C131.548 18.9453 131.883 19.5107 132.312 19.9955C132.739 20.4802 133.257 20.8644 133.863 21.1472C134.469 21.4303 135.136 21.5713 135.863 21.5713C136.833 21.5713 137.652 21.3937 138.323 21.038C138.994 20.6829 139.661 20.1979 140.323 19.5835L142.699 21.9836C142.263 22.4524 141.809 22.8727 141.342 23.244C140.873 23.616 140.36 23.935 139.802 24.2019C139.245 24.4683 138.634 24.6707 137.972 24.8077C137.309 24.9449 136.566 25.0139 135.742 25.0139Z" fill="#828282"/>
<path d="M147.093 7.75391H159.868V11.0752H150.778V14.5176H158.778V17.8386H150.778V21.4023H159.99V24.7233H147.093V7.75391Z" fill="#828282"/>
</g>
<defs>
<clipPath id="clip0_17_609">
<rect width="159.737" height="32" fill="white" transform="translate(0.131348)"/>
</clipPath>
</defs>
</svg>
