<svg width="178" height="32" viewBox="0 0 178 32" fill="none" xmlns="http://www.w3.org/2000/svg">
<g clip-path="url(#clip0_17_643)">
<path d="M27.2489 18.9596C26.7214 19.282 26.1061 19.3406 25.6372 19.0768C25.0511 18.7252 24.6995 17.934 24.6995 16.8498V13.5385C24.6995 11.9561 24.0841 10.8133 23.0292 10.5203C21.2417 9.9928 19.8938 12.1906 19.3956 13.011L16.2308 18.0805V11.8389C16.2015 10.403 15.7327 9.55326 14.8536 9.28953C14.2675 9.11371 13.3884 9.20162 12.5386 10.491L5.4765 21.8021C4.53879 20.0146 4.04064 18.0219 4.04064 16C4.04064 9.17231 9.52037 3.63397 16.2308 3.63397C22.9413 3.63397 28.421 9.17231 28.421 16V16.0293V16.0586C28.4796 17.3773 28.0694 18.4322 27.2489 18.9596ZM31.117 16V15.9707V15.9414C31.0876 7.64853 24.4065 0.879456 16.2308 0.879456C8.02589 0.879456 1.34473 7.64854 1.34473 16C1.34473 24.3222 8.02589 31.1205 16.2308 31.1205C20.011 31.1205 23.586 29.6847 26.3405 27.0767C26.8973 26.5492 26.9266 25.6994 26.3991 25.1427C25.9009 24.5859 25.0512 24.5566 24.4944 25.0547C24.4944 25.0547 24.4944 25.0547 24.4651 25.084C22.238 27.1939 19.2491 28.3953 16.1722 28.3953C12.5679 28.3953 9.34455 26.8129 7.11749 24.2928L13.4763 14.0953V18.8131C13.4763 21.0695 14.3554 21.8021 15.088 22.0072C15.8206 22.2123 16.9341 22.0658 18.1356 20.1611L21.6227 14.5055C21.7399 14.3297 21.8278 14.1539 21.945 14.0367V16.9084C21.945 19.0182 22.7948 20.7178 24.26 21.5383C25.5786 22.3002 27.2489 22.2123 28.6262 21.3625C30.3258 20.249 31.2342 18.315 31.117 16ZM51.8637 10.8426C52.2154 11.0477 52.5377 11.5459 52.5377 11.9854C52.5377 12.6887 51.9516 13.2748 51.2777 13.2748C51.1018 13.2748 50.9553 13.2162 50.8088 13.1869C50.0176 12.6008 49.0213 12.2199 47.9664 12.2199C45.4756 12.2199 43.776 14.2418 43.776 16.7619C43.776 19.282 45.5049 21.2746 47.9664 21.2746C49.1971 21.2746 50.3107 20.7764 51.1312 19.9853C51.3363 19.8387 51.6 19.7508 51.8637 19.7508C52.5377 19.7508 53.0652 20.2783 53.0652 20.9523C53.0652 21.3918 52.8014 21.7728 52.4791 21.9779C51.2777 23.0035 49.666 23.6775 47.9957 23.6775C44.1863 23.6775 41.0801 20.542 41.0801 16.674C41.0801 12.8059 44.1863 9.67047 47.9957 9.67047C49.4023 9.64116 50.7502 10.0807 51.8637 10.8426ZM58.8379 13.7729C61.4459 13.7729 63.6144 15.9707 63.6144 18.6959C63.6144 21.3918 61.4166 23.7068 58.8379 23.7068C56.1127 23.7068 53.8564 21.4211 53.8564 18.6959C53.8564 15.9707 56.1127 13.7729 58.8379 13.7729ZM58.8086 21.2746C59.9515 21.2746 60.9185 20.1904 60.9185 18.7252C60.9185 17.26 59.9515 16.3223 58.8086 16.3223C57.5779 16.3223 56.5523 17.2307 56.5523 18.7252C56.5523 20.1611 57.5779 21.2746 58.8086 21.2746ZM65.2554 22.183V15.2674C65.2554 14.5055 65.8414 13.8901 66.6033 13.8901C67.3359 13.8901 67.9513 14.5055 67.9513 15.2674V22.183C67.9513 22.9449 67.3359 23.5603 66.6033 23.5603C65.8707 23.5603 65.2554 22.9156 65.2554 22.183ZM65.0503 11.2822C65.0503 10.3737 65.7535 9.67047 66.6033 9.67047C67.4824 9.67047 68.1857 10.4031 68.1857 11.2822C68.1857 12.1613 67.4824 12.8645 66.6033 12.8645C65.7242 12.8352 65.0503 12.1319 65.0503 11.2822ZM73.1087 18.4322V22.183C73.1087 22.9449 72.4933 23.5603 71.7607 23.5603C71.0281 23.5603 70.4128 22.9449 70.4128 22.183V14.9451C70.4128 14.359 70.8816 13.8901 71.4677 13.8901C72.0538 13.8901 72.4933 14.3883 72.4933 14.9451C73.5775 13.9195 74.5445 13.7729 75.4529 13.7729C78.1489 13.7729 79.3503 15.7949 79.3503 18.1098V22.183C79.3503 22.9449 78.7349 23.5603 78.0023 23.5603C77.2697 23.5603 76.6544 22.9449 76.6544 22.183V18.4322C76.6544 17.26 76.5079 16.2637 74.8083 16.2637C73.6068 16.2637 73.1087 17.26 73.1087 18.4322ZM88.0827 19.868C87.7604 19.868 87.5552 19.7215 87.3794 19.5164L84.244 16.1172V22.183C84.244 22.9449 83.6286 23.5603 82.896 23.5603C82.1634 23.5603 81.548 22.9449 81.548 22.183V10.1686C81.636 9.9635 81.8411 9.81698 82.0462 9.81698C82.2806 9.81698 82.4858 10.0221 82.6323 10.1686L87.6432 15.7949C87.7897 15.9707 87.9655 16.0586 88.0827 16.0586C88.1706 16.0586 88.3757 15.9707 88.5222 15.7949L93.5331 10.1686C93.6796 10.0221 93.8555 9.81698 94.1192 9.81698C94.3536 9.81698 94.5587 9.9635 94.6173 10.1686V22.183C94.6173 22.9449 94.0313 23.5603 93.2694 23.5603C92.5368 23.5603 91.9214 22.9449 91.9214 22.183V16.1172L88.786 19.5164C88.5516 19.7215 88.3464 19.868 88.0827 19.868ZM101.035 21.2746C102.236 21.2746 103.262 20.1904 103.262 18.7252C103.262 17.26 102.207 16.293 101.035 16.293C99.8626 16.293 98.8956 17.2893 98.8956 18.7252C98.8956 20.1318 99.8333 21.2746 101.035 21.2746ZM103.907 22.5053L103.848 22.183C103.32 23.2086 101.65 23.6775 100.595 23.6775C98.0751 23.6775 96.1997 21.3918 96.1997 18.6666C96.1997 15.9707 98.1044 13.7436 100.742 13.7436C101.181 13.7436 102.705 13.8608 103.877 15.2381L103.936 14.9158C103.936 14.3297 104.375 13.8609 104.961 13.8609C105.548 13.8609 106.016 14.359 106.016 14.9158V22.476C106.016 23.0621 105.548 23.531 104.961 23.531C104.346 23.5603 103.907 23.0621 103.907 22.5053ZM113.43 16.2637H113.137C111.437 16.3516 111.115 17.3186 111.115 18.4322V22.183C111.115 22.9449 110.5 23.5603 109.767 23.5603C109.035 23.5603 108.419 22.9449 108.419 22.183V14.9451C108.419 14.359 108.888 13.8901 109.474 13.8901C110.06 13.8901 110.5 14.3883 110.5 14.9451C111.496 14.0074 112.317 13.8022 113.137 13.7729H113.401C114.045 13.7729 114.632 14.3297 114.632 15.033C114.661 15.6777 114.075 16.2637 113.43 16.2637ZM123.833 21.5383C123.95 21.7435 124.038 21.9486 124.038 22.183C124.038 22.8863 123.393 23.531 122.69 23.531C122.221 23.531 121.811 23.1793 121.489 22.7691L118.382 19.1648V22.1537C118.382 22.9156 117.767 23.531 117.034 23.531C116.302 23.531 115.686 22.9156 115.686 22.1537V11.1649C115.686 10.4031 116.273 9.78768 117.034 9.78768C117.796 9.78768 118.382 10.4031 118.382 11.1649V18.0219L121.489 14.5934C121.811 14.2418 122.192 13.8609 122.661 13.8609C123.335 13.8609 123.95 14.4762 123.95 15.1795C123.95 15.3846 123.891 15.619 123.774 15.7949L121.313 18.4908L123.833 21.5383ZM129.107 16.293C128.375 16.293 127.173 16.674 127.173 17.8168H131.071C131.041 16.674 129.811 16.293 129.107 16.293ZM132.624 19.5457H127.173C127.173 21.1574 128.726 21.4211 129.4 21.4211C129.899 21.4211 130.602 21.3332 131.159 21.0695C131.334 20.9523 131.598 20.8644 131.862 20.8644C132.448 20.8644 132.946 21.3625 132.946 21.9779C132.946 22.3881 132.682 22.7398 132.36 22.9449C131.54 23.5603 130.455 23.7068 129.43 23.7068C126.705 23.7068 124.448 22.2416 124.448 18.8131C124.448 16.1172 125.825 13.7729 129.049 13.7729C131.657 13.7729 133.62 15.4725 133.679 18.4908C133.679 19.0475 133.21 19.5457 132.624 19.5457ZM140.125 23.6775H139.393C137.342 23.6775 136.14 22.7691 136.14 19.575V16.2637H135.437C134.792 16.2637 134.236 15.6777 134.236 15.033C134.236 14.3297 134.822 13.7729 135.437 13.7729H136.14V11.2235C136.14 10.4617 136.726 9.84629 137.488 9.84629C138.221 9.84629 138.836 10.4617 138.836 11.2235V13.7729H139.95C140.594 13.7729 141.151 14.3297 141.151 15.033C141.151 15.6777 140.565 16.2637 139.95 16.2637H138.836V19.0475C138.836 20.8937 138.924 21.2746 139.745 21.2746H140.125C140.77 21.2746 141.327 21.8021 141.327 22.476C141.327 23.1207 140.77 23.6775 140.125 23.6775ZM153.165 10.8426C153.517 11.0477 153.839 11.5459 153.839 11.9854C153.839 12.6887 153.253 13.2748 152.579 13.2748C152.404 13.2748 152.257 13.2162 152.111 13.1869C151.319 12.6008 150.323 12.2199 149.268 12.2199C146.777 12.2199 145.078 14.2418 145.078 16.7619C145.078 19.282 146.807 21.2746 149.268 21.2746C150.499 21.2746 151.612 20.7764 152.433 19.9853C152.638 19.8387 152.902 19.7508 153.165 19.7508C153.839 19.7508 154.367 20.2783 154.367 20.9523C154.367 21.3918 154.103 21.7728 153.781 21.9779C152.579 23.0035 150.968 23.6775 149.297 23.6775C145.488 23.6775 142.382 20.542 142.382 16.674C142.382 12.8059 145.488 9.67047 149.297 9.67047C150.704 9.64116 152.081 10.0807 153.165 10.8426ZM159.993 21.2746C161.195 21.2746 162.22 20.1904 162.22 18.7252C162.22 17.26 161.165 16.293 159.993 16.293C158.792 16.293 157.854 17.2893 157.854 18.7252C157.854 20.1318 158.821 21.2746 159.993 21.2746ZM162.865 22.5053L162.806 22.183C162.279 23.2086 160.609 23.6775 159.554 23.6775C157.034 23.6775 155.158 21.3918 155.158 18.6666C155.158 15.9707 157.063 13.7436 159.7 13.7436C160.14 13.7436 161.663 13.8608 162.836 15.2381L162.894 14.9158C162.894 14.3297 163.334 13.8609 163.92 13.8609C164.506 13.8609 164.975 14.359 164.975 14.9158V22.476C164.975 23.0621 164.506 23.531 163.92 23.531C163.304 23.5603 162.865 23.0621 162.865 22.5053ZM172.33 21.2746C173.531 21.2746 174.469 20.1318 174.469 18.7252C174.469 17.26 173.502 16.293 172.33 16.293C171.128 16.293 170.103 17.26 170.103 18.7252C170.103 20.1904 171.128 21.2746 172.33 21.2746ZM170.103 22.8863V26.3148C170.103 27.0767 169.487 27.692 168.755 27.692C168.022 27.692 167.407 27.0767 167.407 26.3148V14.9451C167.407 14.359 167.876 13.8901 168.462 13.8901C169.048 13.8901 169.487 14.3883 169.487 15.0623C170.484 14.0367 171.715 13.7729 172.652 13.7729C175.26 13.7729 177.194 15.9707 177.194 18.6959C177.194 21.3918 175.348 23.7068 172.799 23.7068C172.008 23.6775 170.835 23.4431 170.103 22.8863Z" fill="#828282"/>
</g>
<defs>
<clipPath id="clip0_17_643">
<rect width="176.36" height="32" fill="white" transform="translate(0.820312)"/>
</clipPath>
</defs>
</svg>
