<svg width="160" height="36" viewBox="0 0 160 36" fill="none" xmlns="http://www.w3.org/2000/svg">
<g clip-path="url(#clip0_17_586)">
<path fill-rule="evenodd" clip-rule="evenodd" d="M34.8531 21.3725C36.7156 19.5099 36.7156 16.4901 34.8531 14.6275L21.6225 1.39693C19.7599 -0.465645 16.7401 -0.465645 14.8775 1.39693L1.64693 14.6275C-0.215645 16.4901 -0.215645 19.5099 1.64693 21.3725L14.8775 34.6031C16.7401 36.4656 19.7599 36.4656 21.6225 34.6031L34.8531 21.3725ZM18.2379 22.5739C19.8904 22.5739 21.3389 21.6997 22.146 20.3885C22.2162 20.2747 22.3383 20.2013 22.4721 20.2013H27.0537C27.2909 20.2013 27.4661 20.423 27.4 20.6509C26.2475 24.6231 22.5818 27.5267 18.2379 27.5267C12.9697 27.5267 8.699 23.256 8.699 17.9879C8.699 12.7197 12.9697 8.449 18.2379 8.449C22.5909 8.449 26.263 11.3649 27.4073 15.35C27.4727 15.5776 27.2976 15.7987 27.0607 15.7987H22.4869C22.3524 15.7987 22.2296 15.7245 22.1597 15.6095C21.3554 14.2859 19.8999 13.4018 18.2379 13.4018C15.7051 13.4018 13.6518 15.4551 13.6518 17.9879C13.6518 20.5207 15.7051 22.5739 18.2379 22.5739Z" fill="#828282"/>
<path d="M55.7805 23.2375C52.667 23.2375 50.6165 20.8475 50.6165 17.8125C50.6165 14.7776 52.667 12.3876 55.7805 12.3876C57.963 12.3876 59.605 13.5758 60.0745 15.391C60.0965 15.4754 60.1715 15.5363 60.2585 15.5363H64.377C64.4895 15.5363 64.5765 15.4365 64.5585 15.3254C63.8965 11.2281 60.2605 8.40421 55.7805 8.40421C50.389 8.40421 46.25 12.4635 46.25 17.8125C46.25 23.1237 50.389 27.1829 55.7805 27.1829C60.2615 27.1829 63.8975 24.3947 64.559 20.2615C64.5765 20.1505 64.49 20.0508 64.3775 20.0508H60.259C60.1715 20.0508 60.0965 20.1121 60.075 20.197C59.6065 22.0484 57.964 23.2375 55.7805 23.2375Z" fill="#828282"/>
<path d="M77.1764 8.40421C71.7084 8.40421 67.6079 12.3876 67.6079 17.8125C67.6079 23.2754 71.7084 27.3346 77.1764 27.3346C82.6059 27.3346 86.7069 23.2754 86.7069 17.8125C86.7069 12.3876 82.6059 8.40421 77.1764 8.40421ZM77.1764 23.3513C74.0629 23.3513 71.9744 20.8854 71.9744 17.8125C71.9744 14.7776 74.0629 12.3876 77.1764 12.3876C80.2519 12.3876 82.3404 14.7776 82.3404 17.8125C82.3404 20.8854 80.2519 23.3513 77.1764 23.3513Z" fill="#828282"/>
<path d="M92.2428 6.26382C93.7613 6.26382 94.9768 5.12572 94.9768 3.6462C94.9768 2.0908 93.7613 0.952698 92.2428 0.952698C90.7238 0.952698 89.5088 2.0908 89.5088 3.6462C89.5088 5.12572 90.7238 6.26382 92.2428 6.26382ZM94.4448 9.00732C94.4448 8.90472 94.3618 8.82157 94.2593 8.82157H90.2643C90.1613 8.82157 90.0783 8.90472 90.0783 9.00732V26.5798C90.0783 26.6824 90.1613 26.7656 90.2643 26.7656H94.2593C94.3618 26.7656 94.4448 26.6824 94.4448 26.5798V9.00732Z" fill="#828282"/>
<path d="M108.493 8.25244C106.329 8.25244 104.506 9.01119 102.949 10.301V9.00729C102.949 8.90469 102.866 8.82154 102.764 8.82154H98.7309C98.6284 8.82154 98.5449 8.90469 98.5449 9.00729V26.5797C98.5449 26.6823 98.6284 26.7655 98.7309 26.7655H102.764C102.866 26.7655 102.949 26.6823 102.949 26.5797V14.8818C102.949 14.8389 102.964 14.7971 102.992 14.7641C104.352 13.1276 106.041 12.2358 107.582 12.2358C110.316 12.2358 111.986 13.9809 111.986 17.1296V26.5797C111.986 26.6823 112.07 26.7655 112.172 26.7655H116.167C116.27 26.7655 116.353 26.6823 116.353 26.5797V16.8641C116.353 11.6667 113.202 8.25244 108.493 8.25244Z" fill="#828282"/>
<path d="M122.13 6.26382C123.649 6.26382 124.864 5.12572 124.864 3.6462C124.864 2.0908 123.649 0.952698 122.13 0.952698C120.611 0.952698 119.396 2.0908 119.396 3.6462C119.396 5.12572 120.611 6.26382 122.13 6.26382ZM124.332 9.00732C124.332 8.90472 124.249 8.82157 124.146 8.82157H120.151C120.049 8.82157 119.966 8.90472 119.966 9.00732V26.5798C119.966 26.6824 120.049 26.7656 120.151 26.7656H124.146C124.249 26.7656 124.332 26.6824 124.332 26.5798V9.00732Z" fill="#828282"/>
<path d="M132.861 8.7836V7.6632C132.861 5.46285 134.342 4.02128 136.62 4.02128C137.213 4.02128 138.192 4.14954 139.054 4.31762C139.17 4.34017 139.278 4.2521 139.278 4.13426V0.711325C139.278 0.62737 139.222 0.553785 139.14 0.53212C137.812 0.177373 136.922 0 135.747 0C131.38 0 128.456 3.07287 128.456 7.6632V8.82155V12.5014V26.5798C128.456 26.6824 128.539 26.7656 128.642 26.7656H132.675C132.778 26.7656 132.861 26.6824 132.861 26.5798V12.5014H140.576C140.679 12.5014 140.762 12.4182 140.762 12.3156V8.9694C140.762 8.86675 140.679 8.7836 140.576 8.7836H132.861Z" fill="#828282"/>
<path d="M157.233 9.04775C157.29 8.9246 157.2 8.7836 157.064 8.7836H152.841C152.769 8.7836 152.704 8.82535 152.673 8.89075L147.323 20.3442L142.223 8.8938C142.193 8.82675 142.127 8.7836 142.054 8.7836H137.75C137.616 8.7836 137.526 8.9209 137.579 9.04365L144.788 25.5777C144.809 25.6262 144.809 25.6814 144.787 25.7295L141.111 33.7367C141.055 33.8597 141.145 34 141.28 34H145.504C145.577 34 145.642 33.9581 145.673 33.8926L157.233 9.04775Z" fill="#828282"/>
</g>
<defs>
<clipPath id="clip0_17_586">
<rect width="159.5" height="36" fill="white" transform="translate(0.25)"/>
</clipPath>
</defs>
</svg>
