<svg width="140" height="32" viewBox="0 0 140 32" fill="none" xmlns="http://www.w3.org/2000/svg">
<g clip-path="url(#clip0_17_596)">
<path fill-rule="evenodd" clip-rule="evenodd" d="M115.777 9.51624H119.742V5.55115H115.777V9.51624ZM94.7006 16.1229C95.4601 14.1124 97.398 12.6827 99.671 12.6827C101.944 12.6827 103.887 14.1124 104.641 16.1229H94.7006ZM99.671 8.99129C94.7006 8.99129 90.6685 13.0234 90.6685 17.9937C90.6685 22.9641 94.7006 26.9962 99.671 26.9962C103.083 26.9962 106.049 25.0974 107.573 22.3051L104.25 20.6911C103.323 22.2604 101.62 23.3103 99.671 23.3103C97.2081 23.3103 95.1362 21.6349 94.5331 19.3564H104.809V19.362H108.573C108.64 18.9152 108.673 18.4573 108.673 17.9937C108.673 13.0234 104.647 8.99129 99.671 8.99129ZM109.723 26.5159H113.688V22.5508H109.723V26.5159ZM115.777 26.5159H119.742V11.2587H115.777V26.5159ZM130.805 23.3103C127.868 23.3103 125.489 20.9313 125.489 17.9937C125.489 15.0562 127.868 12.6772 130.805 12.6772C133.743 12.6772 136.122 15.0562 136.122 17.9937C136.122 20.9313 133.743 23.3103 130.805 23.3103ZM130.805 8.99129C125.835 8.99129 121.803 13.0234 121.803 17.9937C121.803 22.9641 125.835 26.9962 130.805 26.9962C135.776 26.9962 139.808 22.9641 139.808 17.9937C139.808 13.0234 135.776 8.99129 130.805 8.99129ZM47.9069 14.6765V18.7756H53.4525C53.1621 19.9484 52.5924 20.9983 51.7715 21.836C50.5317 23.1037 48.8172 23.7962 46.9408 23.7962C43.0427 23.7962 39.8706 20.6241 39.8706 16.7204C39.8706 12.8224 43.0427 9.64469 46.9408 9.64469C49.0294 9.64469 50.9505 10.5382 52.2797 12.0796L55.4518 9.48274C53.3464 7.01432 50.2245 5.53998 46.9408 5.53998C40.7809 5.53998 35.7715 10.555 35.7715 16.7148C35.7715 22.8747 40.7809 27.8897 46.9408 27.8897C49.9341 27.8897 52.6874 26.8119 54.7034 24.7511C56.3956 23.0199 57.5181 20.6073 57.7303 18.1948C57.8364 17.0164 57.8476 15.8436 57.7806 14.6653L47.9069 14.6765ZM68.101 23.3103C65.169 23.3103 62.7844 20.9313 62.7844 17.9937C62.7844 15.0562 65.1635 12.6772 68.101 12.6772C71.0385 12.6772 73.4176 15.0562 73.4176 17.9937C73.4176 20.9313 71.0385 23.3103 68.101 23.3103ZM73.4176 10.7449C71.9265 9.65027 70.0891 9.00804 68.101 9.00804C63.1306 9.00804 59.1041 13.0402 59.1041 18.0105C59.1041 22.9808 63.1362 27.0129 68.101 27.0129C70.0891 27.0129 71.9265 26.3651 73.4176 25.2761V26.5215H77.1034V9.49949H73.4176V10.7449ZM85.0113 5.55115H81.3254V9.51624H79.1195V12.9955H81.3254V22.0984C81.3254 23.0367 81.4427 23.8297 81.6772 24.4496C81.9062 25.0639 82.2636 25.5442 82.6825 25.9183C83.1069 26.2981 83.6039 26.5941 84.1959 26.7672C84.7991 26.9347 85.458 27.0018 86.1617 27.0018C86.8877 27.0018 87.5355 26.9292 88.0828 26.7784C88.5966 26.6388 89.0881 26.4433 89.5404 26.1976V23.3941C88.8144 23.7068 88.1331 23.8241 87.3568 23.8576C86.5359 23.8967 86.0556 23.6621 85.6535 23.2768C85.2291 22.8747 85.0057 22.3498 85.0057 21.473V12.9955H89.5404V9.51624H85.0057V5.55115H85.0113Z" fill="#828282"/>
<path fill-rule="evenodd" clip-rule="evenodd" d="M16.1751 24.7902C11.3221 24.7902 7.38491 20.8531 7.38491 16C7.38491 11.1469 11.3221 7.20977 16.1751 7.20977V0.0111694C7.34582 0.0111694 0.191895 7.17068 0.191895 16C0.191895 24.8293 7.34582 31.9832 16.1751 31.9832C24.9989 31.9832 32.1584 24.8237 32.1584 16H24.9654C24.9654 20.8586 21.0282 24.7902 16.1751 24.7902Z" fill="#828282"/>
<path fill-rule="evenodd" clip-rule="evenodd" d="M16.1753 16H24.9655V7.20978H16.1753V16Z" fill="#828282"/>
</g>
<defs>
<clipPath id="clip0_17_596">
<rect width="139.616" height="32" fill="white" transform="translate(0.191895)"/>
</clipPath>
</defs>
</svg>
