<svg width="168" height="26" viewBox="0 0 168 26" fill="none" xmlns="http://www.w3.org/2000/svg">
<g clip-path="url(#clip0_17_623)">
<path d="M32.3609 20.0314C31.9732 20.0314 31.6992 19.9512 31.5321 19.7907C31.385 19.6303 31.3115 19.3763 31.3115 19.0221V7.35887C31.3115 7.01131 31.3917 6.75732 31.5521 6.59023C31.7126 6.41645 31.9799 6.32956 32.3609 6.32956H37.3002C39.1784 6.32956 40.5619 6.7239 41.4509 7.51928C42.3398 8.31465 42.7809 9.491 42.7809 11.0617C42.7809 12.619 42.3398 13.7954 41.4509 14.5841C40.5753 15.3661 39.1917 15.7537 37.3002 15.7537H35.3886V19.0154C35.3886 19.363 35.3084 19.617 35.148 19.7841C34.9876 19.9445 34.7136 20.0247 34.3192 20.0247H32.3609V20.0314ZM36.9727 12.8396C37.5208 12.8396 37.9485 12.6925 38.2426 12.3985C38.5501 12.1044 38.7038 11.6632 38.7038 11.0684C38.7038 10.4668 38.5501 10.0123 38.2426 9.71825C37.9485 9.42416 37.5275 9.27712 36.9727 9.27712H35.382V12.8463H36.9727V12.8396Z" fill="#828282"/>
<path d="M47.5335 20.3321C46.2703 20.3321 45.2543 19.9311 44.4924 19.1224C43.7371 18.3002 43.3628 17.1573 43.3628 15.6802C43.3628 14.5506 43.6168 13.5681 44.1314 12.7193C44.6528 11.8704 45.388 11.2221 46.3304 10.7676C47.2862 10.2997 48.3823 10.0658 49.6122 10.0658C50.6348 10.0658 51.5304 10.1794 52.3124 10.4067C53.1078 10.6206 53.8296 10.9347 54.4913 11.3558V19.4164C54.4913 19.6704 54.4445 19.8375 54.351 19.9177C54.2574 19.9979 54.0703 20.038 53.7895 20.038H51.7376C51.5906 20.038 51.4769 20.018 51.3967 19.9779C51.3165 19.9244 51.2497 19.8442 51.1962 19.7373L50.9355 19.1357C50.5479 19.5501 50.0733 19.8576 49.5253 20.0447C48.9705 20.2319 48.3155 20.3321 47.5335 20.3321ZM49.044 17.5984C49.5654 17.5984 49.9798 17.4715 50.2739 17.2175C50.5679 16.9635 50.715 16.5959 50.715 16.128V12.9866C50.461 12.8663 50.1402 12.8062 49.7458 12.8062C49.0307 12.8062 48.4625 13.0535 48.0348 13.5547C47.6204 14.0493 47.4132 14.7511 47.4132 15.6468C47.4132 16.9434 47.9546 17.5984 49.044 17.5984Z" fill="#828282"/>
<path d="M57.2916 20.0313C56.9039 20.0313 56.6232 19.9511 56.4628 19.7907C56.3024 19.6303 56.2222 19.3763 56.2222 19.0221V10.9882C56.2222 10.7475 56.2623 10.5871 56.3425 10.5069C56.436 10.4134 56.6232 10.3666 56.9039 10.3666H58.9759C59.1363 10.3666 59.2566 10.3933 59.3368 10.4468C59.4304 10.4869 59.4839 10.5671 59.4972 10.6874L59.5975 11.2889C59.9718 10.9146 60.4664 10.6206 61.0679 10.4C61.6828 10.1727 62.3713 10.0591 63.1199 10.0591C64.2093 10.0591 65.0849 10.3666 65.76 10.9882C66.435 11.5897 66.7692 12.492 66.7692 13.6884V19.0288C66.7692 19.3763 66.689 19.6303 66.5286 19.7974C66.3816 19.9578 66.1142 20.038 65.7199 20.038H63.7682C63.3805 20.038 63.0998 19.9578 62.9193 19.7974C62.7589 19.637 62.6787 19.383 62.6787 19.0288V13.9491C62.6787 13.5481 62.5918 13.2607 62.4181 13.0802C62.2443 12.9064 61.9702 12.8195 61.5893 12.8195C61.1882 12.8195 60.8607 12.9265 60.6201 13.1403C60.3929 13.3542 60.2792 13.6483 60.2792 14.0293V19.0221C60.2792 19.3697 60.199 19.6236 60.0386 19.7907C59.8916 19.9511 59.6242 20.0313 59.2299 20.0313H57.2916Z" fill="#828282"/>
<path d="M73.9003 20.3321C72.0222 20.3321 70.5718 19.8977 69.5491 19.0221C68.5265 18.1465 68.0186 16.8833 68.0186 15.2123C68.0186 14.1897 68.2525 13.2941 68.727 12.5121C69.1949 11.7301 69.8767 11.1285 70.7589 10.7008C71.6612 10.273 72.7173 10.0591 73.9404 10.0591C74.8695 10.0591 75.6448 10.146 76.2797 10.3198C76.9214 10.4936 77.4962 10.7609 77.9908 11.1285C78.1378 11.2221 78.2114 11.3424 78.2114 11.4894C78.2114 11.5964 78.1579 11.7367 78.0509 11.9105L77.2222 13.3409C77.1286 13.528 77.015 13.6216 76.8813 13.6216C76.8011 13.6216 76.6741 13.5681 76.5003 13.4612C76.1394 13.2339 75.7985 13.0668 75.471 12.9599C75.1635 12.8529 74.7692 12.7995 74.3013 12.7995C73.633 12.7995 73.0849 13.0134 72.6705 13.4411C72.2695 13.8689 72.0689 14.4637 72.0689 15.2123C72.0689 15.981 72.2761 16.5691 72.6905 16.9835C73.1049 17.3846 73.6797 17.5851 74.4016 17.5851C74.8294 17.5851 75.2237 17.5249 75.5713 17.4046C75.9188 17.2843 76.2731 17.1172 76.6407 16.9033C76.8278 16.7964 76.9615 16.7429 77.0417 16.7429C77.162 16.7429 77.2689 16.8365 77.3625 17.0236L78.2715 18.5743C78.3384 18.708 78.3718 18.8149 78.3718 18.8951C78.3718 19.0154 78.2916 19.129 78.1312 19.236C77.5697 19.5969 76.9481 19.8643 76.2797 20.0447C75.618 20.2385 74.8227 20.3321 73.9003 20.3321Z" fill="#828282"/>
<path d="M83.4783 20.3321C82.2151 20.3321 81.1991 19.9311 80.4372 19.1224C79.6819 18.3002 79.3076 17.1573 79.3076 15.6802C79.3076 14.5506 79.5616 13.5681 80.0763 12.7193C80.5976 11.8704 81.3328 11.2221 82.2752 10.7676C83.231 10.2997 84.3205 10.0658 85.557 10.0658C86.5796 10.0658 87.4752 10.1794 88.2572 10.4067C89.0459 10.6206 89.7745 10.9347 90.4362 11.3558V19.4164C90.4362 19.6704 90.3894 19.8375 90.2958 19.9177C90.2022 19.9979 90.0151 20.038 89.7344 20.038H87.6824C87.5354 20.038 87.4218 20.018 87.3415 19.9779C87.2613 19.9244 87.1945 19.8442 87.141 19.7373L86.8804 19.1357C86.4927 19.5501 86.0182 19.8576 85.4701 20.0447C84.9153 20.2319 84.2603 20.3321 83.4783 20.3321ZM84.9889 17.5984C85.5102 17.5984 85.9246 17.4715 86.2187 17.2175C86.5128 16.9635 86.6598 16.5959 86.6598 16.128V12.9866C86.4058 12.8663 86.085 12.8062 85.6907 12.8062C84.9822 12.8062 84.4074 13.0535 83.9796 13.5547C83.5652 14.0493 83.358 14.7511 83.358 15.6468C83.358 16.9434 83.8994 17.5984 84.9889 17.5984Z" fill="#828282"/>
<path d="M103.089 19.2694C103.183 19.3763 103.229 19.4967 103.229 19.6303C103.229 19.7506 103.189 19.8509 103.109 19.9311C103.029 19.9979 102.922 20.0314 102.788 20.0314H99.6669C99.4797 20.0314 99.3394 20.018 99.2458 19.9913C99.1656 19.9512 99.0787 19.8776 98.9851 19.7707L96.2447 16.0411V19.0221C96.2447 19.3697 96.1645 19.6236 96.0041 19.7907C95.8437 19.9512 95.5697 20.0314 95.1753 20.0314H93.2237C92.836 20.0314 92.5553 19.9512 92.3949 19.7907C92.2478 19.6303 92.1743 19.3763 92.1743 19.0221V7.35887C92.1743 7.01131 92.2545 6.75732 92.4149 6.59023C92.5753 6.41645 92.8427 6.32956 93.2237 6.32956H95.1753C95.563 6.32956 95.8437 6.41645 96.0041 6.59023C96.1645 6.75064 96.2447 7.00462 96.2447 7.35887V14.1095L98.9049 10.6473C98.9851 10.5404 99.072 10.4668 99.1656 10.4267C99.2592 10.3866 99.3995 10.3666 99.5867 10.3666H102.708C102.842 10.3666 102.942 10.4067 103.009 10.4869C103.089 10.5537 103.129 10.6473 103.129 10.7676C103.129 10.9013 103.082 11.0216 102.989 11.1285L99.5466 15.0787L103.089 19.2694Z" fill="#828282"/>
<path d="M109.625 20.3321C108.496 20.3321 107.486 20.145 106.604 19.7707C105.729 19.3964 105.04 18.8283 104.525 18.0797C104.018 17.3244 103.757 16.4087 103.757 15.3193C103.757 13.6149 104.238 12.3116 105.207 11.4092C106.176 10.5069 107.567 10.0591 109.378 10.0591C111.149 10.0591 112.493 10.5002 113.408 11.3892C114.337 12.2648 114.798 13.4812 114.798 15.0385C114.798 15.7069 114.504 16.0478 113.91 16.0478H107.593C107.593 16.6226 107.807 17.0704 108.235 17.3779C108.676 17.6853 109.345 17.8391 110.227 17.8391C110.775 17.8391 111.236 17.7923 111.597 17.6987C111.971 17.5918 112.352 17.438 112.727 17.2375C112.887 17.1707 112.994 17.1373 113.047 17.1373C113.168 17.1373 113.268 17.2175 113.348 17.3779L114.03 18.6679C114.097 18.8015 114.13 18.9018 114.13 18.9686C114.13 19.0889 114.05 19.2026 113.889 19.3095C113.341 19.6704 112.713 19.9311 112.018 20.0982C111.33 20.2519 110.528 20.3321 109.625 20.3321ZM111.176 14.0493C111.176 13.5414 111.029 13.1403 110.735 12.8596C110.441 12.5789 110 12.4385 109.405 12.4385C108.816 12.4385 108.362 12.5856 108.055 12.8797C107.747 13.1604 107.593 13.5547 107.593 14.0493H111.176Z" fill="#828282"/>
<path d="M121.71 20.3321C120.58 20.3321 119.511 20.2185 118.508 19.9912C117.499 19.7506 116.69 19.4164 116.068 18.982C115.841 18.8349 115.728 18.6812 115.728 18.5208C115.728 18.4139 115.768 18.3002 115.848 18.1799L116.837 16.6092C116.944 16.4488 117.051 16.3686 117.158 16.3686C117.225 16.3686 117.338 16.4154 117.499 16.509C117.993 16.7897 118.561 17.017 119.19 17.1907C119.818 17.3645 120.446 17.4514 121.061 17.4514C121.696 17.4514 122.157 17.3578 122.451 17.1707C122.759 16.9835 122.913 16.6828 122.913 16.2617C122.913 15.8607 122.746 15.5465 122.411 15.3126C122.091 15.0853 121.476 14.7979 120.58 14.4437C119.223 13.9357 118.16 13.3609 117.398 12.7326C116.65 12.091 116.269 11.2154 116.269 10.1126C116.269 8.78251 116.743 7.76657 117.699 7.07145C118.655 6.36965 119.925 6.02209 121.509 6.02209C122.612 6.02209 123.548 6.12235 124.33 6.32287C125.125 6.51001 125.793 6.8041 126.341 7.21181C126.569 7.38559 126.682 7.546 126.682 7.69305C126.682 7.78662 126.642 7.89356 126.562 8.01387L125.573 9.58456C125.452 9.74497 125.346 9.82518 125.252 9.82518C125.185 9.82518 125.072 9.77839 124.911 9.68482C124.129 9.17685 123.207 8.91618 122.131 8.91618C121.556 8.91618 121.108 9.00976 120.801 9.1969C120.493 9.38405 120.339 9.6915 120.339 10.126C120.339 10.42 120.42 10.6607 120.58 10.8545C120.74 11.0416 120.954 11.2087 121.222 11.3558C121.502 11.4894 121.937 11.6632 122.512 11.8771L122.893 12.0175C123.888 12.4051 124.664 12.7861 125.232 13.147C125.807 13.4946 126.248 13.9357 126.542 14.4571C126.836 14.965 126.983 15.6134 126.983 16.3887C126.983 17.5851 126.535 18.5409 125.633 19.2493C124.751 19.9779 123.441 20.3321 121.71 20.3321Z" fill="#828282"/>
<path d="M131.267 20.0314C131.067 20.0314 130.913 19.9979 130.806 19.9311C130.699 19.8643 130.619 19.7306 130.565 19.5301L127.965 10.8278C127.939 10.7476 127.925 10.6874 127.925 10.6473C127.925 10.4602 128.059 10.3666 128.326 10.3666H130.986C131.16 10.3666 131.287 10.4 131.367 10.4668C131.448 10.5203 131.501 10.6139 131.528 10.7476L132.617 15.3193L133.988 11.6298C134.054 11.4694 134.121 11.3625 134.188 11.309C134.268 11.2422 134.402 11.2087 134.589 11.2087H135.859C136.046 11.2087 136.173 11.2422 136.24 11.309C136.32 11.3625 136.394 11.4694 136.461 11.6298L137.811 15.3193L138.92 10.7476C138.96 10.6139 139.014 10.5203 139.081 10.4668C139.147 10.4 139.268 10.3666 139.441 10.3666H142.122C142.389 10.3666 142.523 10.4602 142.523 10.6473C142.523 10.6874 142.509 10.7476 142.483 10.8278L139.863 19.5301C139.809 19.7306 139.729 19.8643 139.622 19.9311C139.528 19.9979 139.381 20.0314 139.181 20.0314H137.209C137.022 20.0314 136.882 19.9979 136.788 19.9311C136.694 19.8509 136.614 19.7172 136.547 19.5301L135.217 15.8807L133.887 19.5301C133.834 19.7172 133.754 19.8509 133.647 19.9311C133.553 19.9979 133.413 20.0314 133.226 20.0314H131.267Z" fill="#828282"/>
<path d="M147.637 20.3321C146.373 20.3321 145.357 19.9311 144.595 19.1224C143.84 18.3002 143.466 17.1573 143.466 15.6802C143.466 14.5506 143.72 13.5681 144.234 12.7193C144.756 11.8704 145.491 11.2221 146.427 10.7676C147.383 10.2997 148.479 10.0658 149.709 10.0658C150.731 10.0658 151.627 10.1794 152.409 10.4067C153.204 10.6206 153.926 10.9347 154.581 11.3558V19.4164C154.581 19.6704 154.534 19.8375 154.441 19.9177C154.347 19.9979 154.16 20.038 153.879 20.038H151.827C151.68 20.038 151.567 20.018 151.486 19.9779C151.406 19.9244 151.339 19.8442 151.286 19.7373L151.025 19.1357C150.638 19.5501 150.163 19.8576 149.615 20.0447C149.074 20.2319 148.419 20.3321 147.637 20.3321ZM149.154 17.5984C149.675 17.5984 150.089 17.4715 150.384 17.2175C150.678 16.9635 150.825 16.5959 150.825 16.128V12.9866C150.571 12.8663 150.25 12.8062 149.856 12.8062C149.14 12.8062 148.572 13.0535 148.144 13.5547C147.73 14.0493 147.516 14.7511 147.516 15.6468C147.516 16.9434 148.064 17.5984 149.154 17.5984Z" fill="#828282"/>
<path d="M157.374 24.1018C156.986 24.1018 156.712 24.0216 156.545 23.8612C156.398 23.7008 156.325 23.4468 156.325 23.0925V11.5496C156.926 11.1218 157.688 10.7609 158.604 10.4802C159.52 10.1995 160.469 10.0591 161.465 10.0591C165.522 10.0591 167.547 11.7768 167.547 15.219C167.547 16.7763 167.119 18.0195 166.257 18.9486C165.395 19.8776 164.185 20.3388 162.607 20.3388C162.166 20.3388 161.732 20.2853 161.318 20.1784C160.916 20.0715 160.576 19.9244 160.308 19.7373V23.0992C160.308 23.4468 160.228 23.7008 160.068 23.8679C159.907 24.0283 159.633 24.1085 159.239 24.1085L157.374 24.1018ZM161.745 17.6118C162.327 17.6118 162.755 17.3979 163.035 16.9702C163.329 16.529 163.476 15.9342 163.476 15.199C163.476 14.3234 163.303 13.7152 162.955 13.3676C162.621 13.0067 162.093 12.8262 161.384 12.8262C160.93 12.8262 160.562 12.8864 160.295 13.0067V16.2082C160.295 16.6627 160.422 17.017 160.676 17.2576C160.93 17.4915 161.291 17.6118 161.745 17.6118Z" fill="#828282"/>
<path fill-rule="evenodd" clip-rule="evenodd" d="M12.8177 25.9799C9.00123 25.9799 5.92667 25.0643 3.77449 23.4134C1.60894 21.7558 0.452637 19.3897 0.452637 16.7162C0.452637 14.1429 1.60225 12.2848 2.90559 11.0283C3.92822 10.0458 5.0511 9.41748 5.8331 9.04987C5.65264 8.50848 5.43207 7.79331 5.23824 7.0581C4.97089 6.07558 4.71022 4.91928 4.71022 4.07044C4.71022 3.06787 4.93079 2.06529 5.51896 1.28329C6.14056 0.454498 7.07629 0.0133667 8.20585 0.0133667C9.08812 0.0133667 9.8367 0.340873 10.4182 0.902313C10.9796 1.4437 11.3472 2.15887 11.6079 2.90077C12.0624 4.2108 12.2362 5.85501 12.283 7.49923H13.3658C13.4125 5.85501 13.593 4.2108 14.0408 2.90077C14.2948 2.15218 14.6691 1.43702 15.2305 0.902313C15.8187 0.340873 16.5673 0.0133667 17.4429 0.0133667C18.5724 0.0133667 19.5082 0.454498 20.1298 1.28329C20.7179 2.06529 20.9385 3.07455 20.9385 4.07044C20.9385 4.91928 20.6778 6.06889 20.4172 7.0581C20.2167 7.79331 19.9961 8.50848 19.8223 9.04987C20.6043 9.4108 21.7339 10.0458 22.7498 11.0283C24.0532 12.2848 25.2028 14.1429 25.2028 16.7162C25.2028 19.3897 24.0465 21.7491 21.8742 23.4134C19.7287 25.0576 16.6542 25.9733 12.831 25.9799H12.8177Z" fill="#828282"/>
<path d="M8.20511 0.969147C6.55421 0.969147 5.79894 2.21233 5.79894 3.93676C5.79894 5.30694 6.6812 8.04061 7.04212 9.11002C7.12233 9.35064 6.99534 9.61131 6.7614 9.70488C5.43801 10.2262 1.53467 12.1578 1.53467 16.5758C1.53467 21.2278 5.50485 24.7434 12.8169 24.7434H12.8236H12.8303C20.1491 24.7368 24.1126 21.2278 24.1126 16.5758C24.1126 12.1578 20.2092 10.2262 18.8858 9.6982C18.6519 9.60462 18.5249 9.34395 18.6051 9.10334C18.966 8.03393 19.8483 5.30025 19.8483 3.93007C19.8483 2.21233 19.0863 0.962463 17.4354 0.962463C15.056 0.962463 14.4678 4.36452 14.421 8.01388C14.421 8.25449 14.2205 8.45501 13.9799 8.45501H11.6406C11.4 8.45501 11.2061 8.25449 11.1995 8.01388C11.1727 4.3712 10.5845 0.969147 8.20511 0.969147Z" fill="#F5F5F5"/>
<path d="M12.837 23.2596C7.46321 23.2596 1.54135 20.3522 1.53467 16.5892C1.53467 16.5959 1.53467 16.6026 1.53467 16.6093C1.53467 21.2679 5.51153 24.7769 12.837 24.7769C20.1624 24.7769 24.1393 21.2679 24.1393 16.6093C24.1393 16.6026 24.1393 16.5959 24.1393 16.5892C24.1326 20.3522 18.2108 23.2596 12.837 23.2596Z" fill="#BFBFBF"/>
<path d="M9.8501 15.4329C9.8501 16.7028 9.25524 17.3645 8.52002 17.3645C7.7848 17.3645 7.18994 16.7028 7.18994 15.4329C7.18994 14.163 7.7848 13.5013 8.52002 13.5013C9.25524 13.5013 9.8501 14.163 9.8501 15.4329Z" fill="#828282"/>
<path d="M18.478 15.4329C18.478 16.7028 17.8832 17.3645 17.1479 17.3645C16.4127 17.3645 15.8179 16.7028 15.8179 15.4329C15.8179 14.163 16.4127 13.5013 17.1479 13.5013C17.8832 13.5013 18.478 14.163 18.478 15.4329Z" fill="#828282"/>
</g>
<defs>
<clipPath id="clip0_17_623">
<rect width="167.095" height="26" fill="white" transform="translate(0.452637)"/>
</clipPath>
</defs>
</svg>
