<svg width="162" height="40" viewBox="0 0 162 40" fill="none" xmlns="http://www.w3.org/2000/svg">
<g clip-path="url(#clip0_17_606)">
<path fill-rule="evenodd" clip-rule="evenodd" d="M1.54283 0.784528C5.53946 5.68415 9.92765 11.8396 10.6374 12.8352C10.6753 12.8883 10.7027 12.9267 10.719 12.9494C11.0973 13.4777 11.4097 13.8703 11.6469 14.1685C12.1735 14.8305 12.3297 15.027 12.0155 15.2074C11.7621 15.3529 11.5006 15.4009 11.2397 15.4009C10.9447 15.4009 10.6122 15.2573 10.3701 15.0254C10.199 14.8615 9.02827 13.144 7.43404 10.6454C6.21424 8.7336 5.19341 7.14765 5.16556 7.1211C5.10117 7.05968 5.10227 7.06177 7.30967 11.0512C8.69572 13.5563 9.64384 15.4074 9.64384 15.5259C9.64384 15.7668 9.57875 15.8934 9.28454 16.2249C8.79407 16.7777 8.5748 17.3987 8.41654 18.6838C8.2391 20.1245 7.74017 21.1423 6.35747 22.884C5.54809 23.9037 5.41566 24.0905 5.21142 24.5015C4.95419 25.019 4.88344 25.3088 4.85477 25.9623C4.82447 26.6533 4.88349 27.0997 5.09247 27.7602C5.27544 28.3385 5.46641 28.7205 5.95462 29.4843C6.37596 30.1433 6.61855 30.6332 6.61855 30.8248C6.61855 30.9773 6.64737 30.9775 7.30025 30.8287C8.86269 30.4722 10.1314 29.8455 10.8449 29.0773C11.2865 28.6018 11.3902 28.3393 11.3935 27.6878C11.3958 27.2617 11.3809 27.1725 11.2669 26.9273C11.0812 26.5282 10.7433 26.1965 9.99837 25.6822C9.02235 25.0082 8.60549 24.4657 8.49034 23.7195C8.39589 23.1073 8.50547 22.6753 9.0454 21.5323C9.60425 20.3492 9.74275 19.845 9.83644 18.6523C9.89694 17.8818 9.98074 17.578 10.1999 17.3342C10.4285 17.0798 10.6343 16.9937 11.1999 16.9155C12.1222 16.7883 12.7094 16.5473 13.1921 16.098C13.6108 15.7083 13.7861 15.3327 13.8129 14.7674L13.8334 14.3389L13.5994 14.0633C12.7519 13.0653 0.975324 0 0.923174 0C0.912033 0 1.19089 0.353062 1.54283 0.784528ZM7.09425 26.7442C7.28585 26.4013 7.18405 25.9608 6.86355 25.7455C6.56074 25.5422 6.09034 25.638 6.09034 25.903C6.09034 25.9838 6.1346 26.0427 6.23441 26.0947C6.40242 26.182 6.41462 26.2802 6.28242 26.4808C6.14854 26.6842 6.15934 26.8628 6.3129 26.9842C6.5604 27.18 6.91076 27.0723 7.09425 26.7442ZM12.8612 8.05408C12.4831 7.99485 12.4672 7.9879 12.6451 7.96028C12.986 7.90732 13.7911 7.9795 14.3459 8.11275C15.641 8.4237 16.8195 9.2203 18.0775 10.6351L18.4117 11.0109L18.8898 10.9333C20.904 10.6063 22.953 10.8662 24.6668 11.6659C25.1383 11.8859 25.8817 12.3238 25.9745 12.4363C26.004 12.4722 26.0585 12.7031 26.0952 12.9494C26.2225 13.8018 26.1588 14.4551 25.9007 14.943C25.7603 15.2085 25.7525 15.2927 25.8468 15.5199C25.9222 15.7013 26.1323 15.8355 26.3405 15.8352C26.7663 15.8346 27.2247 15.1392 27.4372 14.1716L27.5215 13.7873L27.6887 13.9785C28.6053 15.0277 29.3255 16.4584 29.4492 17.4768L29.4813 17.7423L29.3273 17.501C29.062 17.0857 28.7957 16.8028 28.4543 16.5748C27.8393 16.1637 27.1888 16.0238 25.4665 15.9321C23.9108 15.8493 23.0305 15.7151 22.1575 15.4275C20.672 14.9384 19.9233 14.2869 18.1588 11.9487C17.3752 10.9101 16.8908 10.3355 16.409 9.87273C15.3141 8.82128 14.2383 8.26985 12.8612 8.05408ZM26.3253 10.373C26.3645 9.67702 26.458 9.21798 26.6458 8.79878C26.7202 8.63285 26.7898 8.49703 26.8005 8.49703C26.8113 8.49703 26.779 8.61952 26.7287 8.76918C26.5922 9.17603 26.5697 9.73248 26.6638 10.3799C26.7832 11.2014 26.8512 11.3199 27.7107 12.2073C28.1138 12.6235 28.5828 13.1484 28.7528 13.3738L29.062 13.7836L28.7528 13.4907C28.3748 13.1326 27.5055 12.4341 27.3135 12.3343C27.1847 12.2673 27.1655 12.2685 27.0862 12.3483C27.013 12.4219 26.9975 12.5325 26.9873 13.0551C26.9715 13.8697 26.8617 14.3926 26.5963 14.9154C26.4528 15.1982 26.4302 15.1378 26.56 14.8187C26.657 14.5804 26.6668 14.4756 26.6662 13.687C26.6647 12.1025 26.4783 11.7216 25.3862 11.0691C25.1097 10.9038 24.6537 10.6654 24.3732 10.5393C24.0928 10.4132 23.87 10.3033 23.878 10.2951C23.909 10.264 24.9742 10.578 25.4028 10.7446C26.0405 10.9924 26.1457 11.0245 26.2232 10.9946C26.275 10.9746 26.3002 10.8219 26.3253 10.373ZM12.456 9.15653C12.3532 10.3798 12.8281 12.0162 13.5956 13.0835C14.1905 13.9109 15.1128 14.5538 15.7937 14.6159C16.2395 14.6565 16.3735 14.5156 16.1718 14.2181C15.8918 13.805 15.5474 13.169 15.4562 12.8967C15.3996 12.7275 15.2766 12.2278 15.1828 11.7863C14.8627 10.2788 14.548 9.6917 13.8211 9.2458C13.5562 9.08328 12.9906 8.87062 12.6625 8.81018L12.4878 8.77797L12.456 9.15653ZM25.3945 21.0268C21.8077 19.5682 20.5443 18.302 20.5443 16.1656C20.5443 15.8512 20.5552 15.594 20.5682 15.594C20.5813 15.594 20.72 15.6978 20.8765 15.8246C21.6038 16.4138 22.4183 16.6655 24.6732 16.9977C25.9998 17.1933 26.7465 17.3512 27.4353 17.582C29.6245 18.3153 30.979 19.8035 31.302 21.8307C31.3958 22.4197 31.3408 23.5242 31.1887 24.1063C31.0685 24.5662 30.7018 25.3948 30.6047 25.4267C30.5777 25.4355 30.5512 25.3312 30.5443 25.1892C30.5075 24.428 30.1267 23.687 29.4872 23.1318C28.76 22.5007 27.783 21.9983 25.3945 21.0268ZM22.7032 20.8663C22.7535 21.0178 22.8315 21.3627 22.8763 21.6328C23.1637 23.3598 22.2662 24.7552 20.5203 25.2958C20.3355 25.353 19.6075 25.497 18.9025 25.6155C17.4754 25.8555 16.8384 26.0255 16.1986 26.3368C15.7448 26.5577 15.1954 26.8883 15.2281 26.9212C15.2386 26.9318 15.3422 26.9068 15.4582 26.8657C16.2651 26.5795 17.1631 26.4313 18.5275 26.3597C19.069 26.3313 19.6848 26.286 19.8962 26.2592C21.1117 26.1045 21.9542 25.7315 22.6093 25.058C22.9738 24.6832 23.1912 24.334 23.3663 23.8417C23.4773 23.5293 23.4923 23.4133 23.4932 22.86C23.4942 22.2962 23.4807 22.193 23.3603 21.8462C23.2028 21.3915 23.017 21.0503 22.7817 20.7835L22.6117 20.5908L22.7032 20.8663ZM24.5207 24.5823C24.044 23.5475 23.9347 22.5485 24.1957 21.6168C24.2237 21.5172 24.2685 21.4357 24.2957 21.4357C24.3227 21.4357 24.435 21.4972 24.5455 21.5722C24.765 21.7215 25.2055 21.973 26.3788 22.6192C27.8432 23.4255 28.678 24.0498 29.2457 24.7633C29.7428 25.388 30.0505 26.0995 30.1985 26.9672C30.2825 27.4587 30.2333 28.6413 30.1085 29.1362C29.7148 30.6967 28.7998 31.9223 27.4948 32.6377C27.3037 32.7423 27.132 32.8283 27.1133 32.8288C27.0948 32.8292 27.1645 32.6503 27.2682 32.4312C27.7072 31.5042 27.7572 30.6025 27.4253 29.599C27.222 28.9845 26.8077 28.2347 25.971 26.9673C24.9983 25.494 24.7598 25.1018 24.5207 24.5823ZM15.5441 27.9763C14.0355 28.2238 12.3794 29.0302 11.0484 30.1653L10.6521 30.5033L11.0004 30.5583C12.8177 30.8448 13.3071 31.099 14.5676 32.4107C15.2931 33.1653 15.5381 33.3333 16.1398 33.4885C17.0235 33.7163 17.8947 33.2977 18.1935 32.5013C18.327 32.1455 18.3092 31.5563 18.156 31.2605C17.7917 30.556 16.7302 30.3283 16.2169 30.8443C15.7894 31.2742 15.914 31.9217 16.4457 32.033C16.5674 32.0587 16.564 32.0532 16.4147 31.985C16.182 31.8787 16.0809 31.7313 16.0796 31.4968C16.0766 30.947 16.6995 30.6383 17.279 30.9023C17.7033 31.0958 17.8718 31.3485 17.8718 31.7915C17.8718 32.4737 17.297 32.9877 16.6281 32.9037C16.2706 32.8587 15.8333 32.6277 15.5988 32.36C15.0088 31.6862 15.2387 30.6228 16.0624 30.2148C16.6895 29.9043 17.5231 29.9808 18.1695 30.4083C18.9122 30.8997 19.228 31.3487 19.8677 32.8223C20.076 33.3022 20.344 33.8423 20.4632 34.0227C21.0692 34.9388 21.7952 35.3882 22.6697 35.3882C23.152 35.3882 23.5148 35.2992 23.9713 35.069C24.3105 34.8978 24.7913 34.5727 24.7567 34.5378C24.7468 34.528 24.6062 34.5722 24.444 34.636C23.4892 35.0122 22.5185 34.9863 21.9548 34.5695C21.5998 34.3072 21.3135 33.7845 21.1663 33.1308C21.1408 33.0177 21.0568 32.518 20.9795 32.0203C20.7835 30.759 20.5953 30.192 20.1565 29.5413C19.7075 28.8757 18.8443 28.317 17.8793 28.0675C17.2773 27.9118 16.1942 27.8695 15.5441 27.9763ZM13.4313 18.2242C13.5616 17.7382 13.9824 17.2747 14.4154 17.1403C14.6907 17.055 15.2597 17.1095 15.5273 17.2468C16.0458 17.5132 16.4222 18.1197 16.3405 18.5575C16.2409 19.0913 15.3838 19.5185 14.3978 19.5255C13.8942 19.529 13.7083 19.4607 13.5159 19.2013C13.3969 19.0407 13.3518 18.5207 13.4313 18.2242ZM15.3949 17.4372C15.6535 17.5967 15.72 17.8325 15.5679 18.0507C15.4632 18.201 15.139 18.3438 14.902 18.3438C14.5461 18.3438 14.1577 18.0885 14.1577 17.8547C14.1577 17.3848 14.9024 17.1333 15.3949 17.4372ZM92.6781 18.7825C91.8738 16.1071 93.2003 13.8879 96.0306 13.1748C96.8423 12.9701 100.518 13.0625 101.147 13.3034C101.379 13.3917 101.479 13.7305 101.482 14.4269C101.483 14.9753 101.543 15.6414 101.614 15.907C101.723 16.3096 101.659 16.3888 101.234 16.3824C100.85 16.3764 100.618 16.1511 100.293 15.4698C99.7751 14.3816 99.1476 14.0354 97.6855 14.0314C95.8188 14.026 94.453 15.2828 94.6753 16.8013C94.8201 17.7895 95.8075 18.7618 98.0231 20.0985C100.131 21.37 101.362 22.4157 101.852 23.3525C103.163 25.8572 102.043 28.5375 99.1226 29.888C97.6233 30.5812 95.1105 30.6528 93.3438 30.0528L92.2125 29.6685V27.8608C92.2125 26.2237 92.2515 26.0528 92.6246 26.0528C92.9368 26.0528 93.0716 26.2592 93.1811 26.9055C93.4538 28.5127 94.6751 29.4883 96.4146 29.4883C98.1186 29.4883 99.3098 28.5573 99.7661 26.8692C99.9605 26.15 99.927 25.8848 99.5415 25.0915C99.0795 24.1403 98.284 23.5092 95.5821 21.9505C94.083 21.0855 93.0228 19.929 92.6781 18.7825ZM39.7148 14.2428C39.3462 14.2428 39.2023 14.1224 39.2023 13.8134C39.2023 13.4043 39.3462 13.3839 42.235 13.3839C44.9163 13.3839 45.2595 13.4243 45.198 13.732C45.1595 13.9235 44.789 14.1892 44.3742 14.3225L43.6198 14.5649L43.5555 20.0405C43.5123 23.6942 43.573 25.8018 43.7375 26.3748C44.2267 28.079 45.7188 29.059 47.8242 29.059C49.2898 29.059 50.146 28.7163 51.2216 27.6987C52.3786 26.6047 52.5631 25.5652 52.5595 20.1625C52.556 14.8334 52.4632 14.3936 51.3186 14.283C50.7978 14.2325 50.6233 14.1112 50.6233 13.7999C50.6233 13.4116 50.7951 13.3839 53.2091 13.3839C55.6513 13.3839 55.795 13.4078 55.795 13.8134C55.795 14.0779 55.6501 14.2441 55.4178 14.2461C54.4198 14.2549 54.4015 14.3498 54.2672 20.1933C54.1278 26.2617 53.9977 26.9802 52.7678 28.4667C52.4132 28.8955 51.5673 29.5182 50.8883 29.8505C49.7818 30.392 49.4298 30.4542 47.4986 30.4507C45.7185 30.447 45.1565 30.361 44.2663 29.9558C42.967 29.3643 42.122 28.5988 41.499 27.4485C41.0642 26.6455 41.027 26.211 40.9263 20.7705C40.811 14.5431 40.7552 14.2428 39.7148 14.2428ZM59.8791 14.2428C59.3865 14.2428 59.2428 14.1458 59.2428 13.8134C59.2428 13.4108 59.3805 13.385 61.4515 13.4016L63.6603 13.4192L64.7171 14.6362C65.298 15.3055 67.192 17.3993 68.9255 19.2888C70.6591 21.1785 72.6495 23.3767 73.3483 24.1738C74.0473 24.9712 74.7051 25.6233 74.8103 25.6233C74.9183 25.6233 74.9721 23.3713 74.9336 20.451L74.8656 15.2787L74.261 14.7608C73.9285 14.4758 73.4196 14.2428 73.1298 14.2428C72.7443 14.2428 72.6031 14.126 72.6031 13.8074C72.6031 13.388 72.7131 13.3741 75.566 13.4316C77.9918 13.4806 78.529 13.5482 78.529 13.8046C78.529 13.9873 78.229 14.1791 77.8086 14.2648C77.4126 14.3455 76.9761 14.5233 76.839 14.6599C76.662 14.8361 76.5718 17.1155 76.528 22.5203L76.4661 30.1325H75.8416C75.304 30.1325 74.664 29.5275 71.2423 25.7843C69.0561 23.3927 66.5043 20.5503 65.5716 19.468C64.6388 18.3855 63.803 17.4917 63.7141 17.4818C63.464 17.4538 63.5245 27.1248 63.7803 28.0428C63.9798 28.7582 64.117 28.8813 64.9645 29.1073C65.647 29.2892 65.923 29.4737 65.923 29.7477C65.923 30.0995 65.6628 30.1325 62.9061 30.1325C60.1 30.1325 59.8893 30.1045 59.8893 29.73C59.8893 29.4558 60.0923 29.287 60.526 29.2005C61.8418 28.9383 61.9291 28.5222 62.003 22.1605C62.0443 18.5975 61.9836 16.1045 61.8425 15.5825C61.5945 14.6646 60.9765 14.2428 59.8791 14.2428ZM82.4745 14.2428C82.0128 14.2428 81.8691 14.1409 81.8691 13.8134C81.8691 13.4031 82.0128 13.3839 85.1015 13.3839C88.19 13.3839 88.3338 13.4031 88.3338 13.8134C88.3338 14.1284 88.19 14.2428 87.795 14.2428C87.4988 14.2428 87.0585 14.44 86.8166 14.6809C86.3898 15.1063 86.3788 15.3178 86.4396 21.8918C86.4988 28.3093 86.5241 28.6807 86.9203 28.9692C87.1505 29.1367 87.5625 29.2737 87.8361 29.2737C88.19 29.2737 88.3338 29.3975 88.3338 29.7032C88.3338 30.1135 88.19 30.1325 85.1015 30.1325C82.0863 30.1325 81.8691 30.1055 81.8691 29.7307C81.8691 29.4283 82.0806 29.2948 82.7228 29.1925C83.998 28.9893 84.0631 28.5733 83.9836 21.1502C83.9201 15.2055 83.8928 14.8348 83.498 14.5473C83.2678 14.3798 82.8073 14.2428 82.4745 14.2428ZM105.022 14.2428C104.727 14.2428 104.503 14.0794 104.433 13.8134C104.324 13.3981 104.426 13.3839 107.532 13.3839C110.601 13.3839 110.744 13.4031 110.744 13.8134C110.744 14.1434 110.601 14.2428 110.124 14.2428C108.768 14.2428 108.798 14.4885 110.851 20.104C111.896 22.9625 112.911 25.6778 113.106 26.138L113.461 26.9748L115.106 22.595C117.044 17.4395 117.296 16.4861 116.967 15.5458C116.737 14.8905 115.846 14.2428 115.173 14.2428C114.983 14.2428 114.839 14.0582 114.839 13.8134C114.839 13.4024 114.983 13.3839 118.179 13.3839C121.375 13.3839 121.519 13.4024 121.519 13.8134C121.519 14.119 121.375 14.2428 121.021 14.2428C120.115 14.2428 119.716 14.7243 119.846 15.6596C119.98 16.6225 123.686 26.9707 123.842 26.8158C124.095 26.564 128.199 15.4241 128.199 14.9899C128.199 14.4696 127.834 14.2428 126.996 14.2428C126.619 14.2428 126.475 14.1245 126.475 13.8134C126.475 13.4078 126.619 13.3839 129.061 13.3839C131.254 13.3839 131.647 13.4346 131.647 13.7172C131.647 13.9006 131.378 14.1439 131.05 14.2579C130.311 14.5145 130.126 14.8074 129.199 17.1798C128.792 18.2217 127.519 21.4823 126.369 24.4253C125.219 27.3687 124.229 29.9052 124.169 30.062C124.108 30.219 123.752 30.3473 123.376 30.3473H122.694L121.147 26.3212C120.295 24.107 119.289 21.4837 118.912 20.4917C118.264 18.7918 118.21 18.718 117.966 19.2032C117.824 19.4867 116.801 22.1147 115.693 25.0433L113.679 30.3683L112.927 30.3042L112.175 30.24L109.307 22.7413C107.705 18.5518 106.232 15.0219 105.969 14.7427C105.71 14.4677 105.283 14.2428 105.022 14.2428ZM148.109 14.3339C148.073 14.2523 148.073 13.9592 148.073 13.9592C148.073 13.9592 148.065 13.8535 148.109 13.7971C148.153 13.7409 148.169 13.7394 148.328 13.7243L148.329 13.7241C148.911 13.6688 150.078 13.5757 151.052 13.5332C151.142 13.5293 151.241 13.5248 151.349 13.5199L151.351 13.5198L151.352 13.5197L151.353 13.5197C152.425 13.471 154.344 13.406 155.662 13.4719C158.192 13.5983 159.992 14.8212 160.605 16.8422C161.218 18.863 160.894 20.76 160.058 21.9675C159.222 23.175 157.817 24.2147 155.48 24.147C153.552 24.0912 153.035 23.73 152.623 23.4415C152.536 23.3805 152.453 23.3227 152.363 23.2718V25.849C152.384 27.6067 152.398 28.4508 152.534 28.7633C152.718 29.184 153.132 29.4432 153.94 29.6418C153.94 29.6418 154.305 29.7275 154.4 29.8188C154.494 29.9102 154.494 30.113 154.494 30.113C154.494 30.113 154.513 30.3027 154.437 30.3993C154.362 30.496 154.215 30.4767 154.215 30.4767L150.639 30.4478L148.482 30.4422C148.482 30.4422 148.256 30.4855 148.171 30.3945C148.086 30.3033 148.094 30.1135 148.094 30.1135C148.094 30.1135 148.113 29.909 148.212 29.8175C148.311 29.7258 148.679 29.6235 148.679 29.6235C149.511 29.39 149.871 29.143 150.06 28.6777C150.212 28.3025 150.213 27.6068 150.211 21.9297C150.21 16.5458 150.202 15.5415 150.078 15.2527C149.896 14.8251 149.438 14.7119 148.787 14.5506L148.786 14.5505C148.657 14.5185 148.521 14.4847 148.377 14.4461C148.377 14.4461 148.145 14.4155 148.109 14.3339ZM158.523 18.727C158.523 19.6098 158.508 20.992 157.568 21.8755C156.628 22.759 154.778 23.0008 153.521 22.7548C153.125 22.6773 152.899 22.5578 152.725 22.4657L152.707 22.4565L152.386 22.2872L152.367 19.1853C152.355 17.2418 152.376 15.9756 152.421 15.7946C152.463 14.7698 153.975 14.6423 154.713 14.6803C157.873 14.6803 158.431 17.3427 158.523 18.727ZM138.186 13.5042C138.186 13.5042 138.032 13.5634 137.798 13.6521L136.954 14.0879L136.347 15.6047C136.013 16.4389 135.401 17.9703 134.989 19.0078C134.237 20.8975 133.74 22.139 133.217 23.4348C133.064 23.816 132.599 24.9767 132.186 26.0142C131.772 27.0515 131.359 28.0388 131.267 28.2082C131.252 28.2363 131.236 28.2667 131.219 28.2987C130.988 28.7333 130.586 29.4883 129.876 29.6025C129.876 29.6025 129.486 29.6408 129.342 29.7835C129.197 29.9263 129.211 30.043 129.211 30.043V30.2228C129.211 30.2228 129.224 30.31 129.306 30.3533C129.388 30.3968 129.499 30.3993 129.499 30.3993L132.094 30.3698H134.776C134.776 30.3698 134.966 30.392 135.039 30.3313C135.112 30.2707 135.133 30.1807 135.133 30.1807V29.9913C135.133 29.9913 135.095 29.786 134.989 29.7058C134.883 29.6258 134.485 29.571 134.485 29.571C133.411 29.4298 133.226 28.6177 133.359 27.8873C133.424 27.5285 133.855 26.2012 134.341 24.8648L134.509 24.403L137.32 24.3815C138.866 24.3697 140.2 24.3777 140.286 24.3993C140.408 24.4302 140.579 24.777 141.08 26.0123C141.84 27.884 141.901 28.112 141.732 28.4622C141.722 28.4835 141.711 28.507 141.699 28.5323C141.542 28.871 141.235 29.529 140.463 29.596C140.463 29.596 140.053 29.6102 139.951 29.7327C139.849 29.8553 139.871 29.9963 139.871 29.9963V30.1837C139.871 30.1837 139.899 30.2935 139.951 30.337C140.004 30.3805 140.093 30.3695 140.093 30.3695L142.644 30.3512L146.23 30.351C146.23 30.351 146.371 30.366 146.409 30.312C146.447 30.2578 146.455 30.1942 146.455 30.1942V29.9453C146.455 29.9453 146.44 29.813 146.371 29.74C146.302 29.6672 145.837 29.5902 145.837 29.5902C145.243 29.4943 144.947 29.004 144.726 28.6388C144.67 28.5457 144.619 28.4607 144.569 28.3925C144.467 28.2533 144.102 27.4907 143.816 26.7572C143.531 26.0237 142.887 24.3667 142.385 23.0752C141.883 21.7837 141.182 19.982 140.828 19.0717C140.474 18.1612 139.801 16.4288 139.332 15.222C139.256 15.0239 139.187 14.846 139.125 14.6867L139.125 14.686C138.811 13.8755 138.684 13.5485 138.649 13.5042C138.536 13.3605 138.186 13.5042 138.186 13.5042ZM138.019 18.436C137.906 18.1608 137.707 17.6672 137.577 17.339C137.34 16.7425 137.25 16.6051 137.177 16.7283C137.156 16.7643 137.007 17.172 136.846 17.6343C135.806 20.6277 135.335 21.9755 135.24 22.2295C135.181 22.3892 135.133 22.5537 135.133 22.5952C135.133 22.6428 135.979 22.6707 137.428 22.6707C138.69 22.6707 139.723 22.655 139.723 22.6358C139.723 22.6167 139.611 22.331 139.473 22.0007C139.335 21.6703 138.998 20.8458 138.724 20.1683C138.45 19.4908 138.133 18.7113 138.019 18.436Z" fill="#828282"/>
</g>
<defs>
<clipPath id="clip0_17_606">
<rect width="160.167" height="40" fill="white" transform="translate(0.916504)"/>
</clipPath>
</defs>
</svg>
